<svg xmlns="http://www.w3.org/2000/svg" width="168.925" height="44.953" viewBox="0 0 168.925 44.953"><path fill="#010101" d="M0 0h11.957l6.16 28.891L24.277 0h11.957v44.953h-9.42V23.196l-5.125 21.757h-7.142L9.421 23.196v21.757H0V0zm65.425 37.188L76.141 9.006H65.737V0h20.394v7.765l-10.715 28.18h10.715v9.008H65.425v-7.765zm30.177-9.049L86.75 0h9.939l3.675 13.458L104.039 0h9.938l-8.852 28.139v16.814h-9.524V28.139zM115.839.046h9.523v33.158c0 1.968 1.371 2.95 2.477 2.95 1.103 0 2.473-.982 2.473-2.95V.046h9.523v32.9c0 3.83-1.035 6.823-3.104 8.979-2.071 2.157-5.581 3.235-8.892 3.235-3.314 0-6.823-1.078-8.894-3.235-2.07-2.156-3.106-5.149-3.106-8.979V.046zM144.08 0h9.938l5.486 17.285V0h9.421v44.953h-9.938L153.5 23.859v21.094h-9.42V0z"/><path fill-rule="evenodd" clip-rule="evenodd" fill="#010101" d="M57.506 0H45.913l-7.195 44.953h6.124c.011-.068.025-.132.027-.162l.082-.75c.042-.391.14-.783.21-1.169.165-.918.342-1.833.468-2.76.107-.791.21-1.583.303-2.378.233-1.986.477-3.966.632-5.959.067-.841.135-1.664.258-2.498.142-.969.302-1.934.386-2.909l-.21 1.299c-.017.102-.024.123-.127.191a1.081 1.081 0 0 1-.469.179l-.62.069c.069.312.104.549.039.862a3.42 3.42 0 0 0-.055.716c0 .065.085.055.13.102.049.051.048.123.03.188-.053.178-.197.318-.292.475-.077.124-.171.101-.316.119a.558.558 0 0 0-.287.112c-.159.104-.456.024-.594-.076-.1-.07-.16-.165-.234-.265-.082-.108-.161-.195-.229-.313-.019-.035-.063-.078-.076-.108-.067-.146.002-.426.041-.575.045-.169.154-.329.209-.5l.199-.622c.038-.116.189-.441.162-.557-.009-.039-.1-.11-.125-.14-.056-.065.001-.241.014-.313.029-.155.061-.311.092-.466.111-.539.264-1.078.321-1.626.072-.695.231-1.381.305-2.075.094-.896-.016-1.793-.016-2.684 0-1.546-.069-3.171.673-4.574.32-.606.776-1.341 1.429-1.646.001-.001-.002-.001-.001-.002.027-.053.79-.331.842-.351.12-.046.301-.083.549-.234.353-.217.514-.293.747-.47.141-.107.086-.369.09-.536.012-.445.14-.898.217-1.335.101-.562.154-1.202.381-1.729.038-.088.102-.237.212-.248l.045-.005v-.002h-.002c.125-.01.356-.042.394-.046a17.62 17.62 0 0 1 1.718-.105c.744-.006 1.577.018 2.259.353.077.038.125.099.195.147.036.025.068.06.102.087.021.02.053.079.081.087.006.002.009-.011.014-.015a.858.858 0 0 1 .14.402c.017.169.024.354-.018.521-.121.482-.266.962-.336 1.455a3.144 3.144 0 0 1-.186.663c-.084.224-.215.402-.349.603-.067.101-.029.175.035.238.084.041.169.08.254.12a.64.64 0 0 1 .068.027c.007.006.011.011.02.014l.013.008c.122.061.243.128.354.213.033.028.068.066.105.108.003.001.005.003.009.003.138.065.262.164.386.258.558.298 1.061.605 1.418 1.18.423.685.65 1.457.705 2.257.112 1.633.276 3.297.134 4.927-.074.852-.09 1.438-.601 2.535-.238.514-.534.86-.796 1.293-.127.209-.251.422-.369.637-.086.16-.17.466-.299.595l-.151.152c.037.406.082.812.141 1.214.051.492.112.981.154 1.465.155 1.8.332 3.597.532 5.393.152 1.362.311 2.723.452 4.084.135 1.299.336 2.612.357 3.918l.015.936h7.057L57.506 0zm-2.442 9.75c-.006-.002-.013-.01-.019-.017.023-.021.037-.077.04-.1a.433.433 0 0 0-.012-.205.726.726 0 0 0-.253-.338c-.661-.545-1.605-.502-2.41-.472-.313.01-.626.03-.939.055a7.272 7.272 0 0 0-.994.131c.103-.056.297-.115.339-.161.247-.276.435-.608.777-.741.469-.182.969-.283 1.469-.186.48.096.894.367 1.316.6.107.059.213.115.283.206.03.041.055.087.069.143.031.131.007.285.086.399.013.008.026.015.038.026.109.088.21.2.252.338a.42.42 0 0 1 .012.205c-.002.028-.017.127-.054.117z"/><path fill-rule="evenodd" clip-rule="evenodd" d="M45.05 29.397c-.027.087-.132.156-.08.235l.165.25.09-.185c.028-.209.107-.453.056-.662-.154.052-.189.229-.231.362z"/></svg>